HIERARCHY
ROOT root
{
	OFFSET 0.000000 0.000000 0.000000
	CHANNELS 6 Xposition Yposition Zposition Zrotation Yrotation Xrotation
	JOINT lhip
	{
		OFFSET 0.058581 -0.082280 -0.017664
		CHANNELS 3 Zrotation Yrotation Xrotation
		JOINT lknee
		{
			OFFSET 0.043451 -0.386469 0.008037
			CHANNELS 3 Zrotation Yrotation Xrotation
			JOINT lankle
			{
				OFFSET -0.014790 -0.426874 -0.037428
				CHANNELS 3 Zrotation Yrotation Xrotation
				JOINT ltoe
				{
					OFFSET 0.041054 -0.060286 0.122042
					CHANNELS 3 Zrotation Yrotation Xrotation
					End Site
					{
						OFFSET 0.000000 0.000000 0.000000
					}
				}
			}
		}
	}
	JOINT rhip
	{
		OFFSET -0.060310 -0.090513 -0.013543
		CHANNELS 3 Zrotation Yrotation Xrotation
		JOINT rknee
		{
			OFFSET -0.043257 -0.383688 -0.004843
			CHANNELS 3 Zrotation Yrotation Xrotation
			JOINT rankle
			{
				OFFSET 0.019056 -0.420046 -0.034562
				CHANNELS 3 Zrotation Yrotation Xrotation
				JOINT rtoe
				{
					OFFSET -0.034840 -0.062106 0.130323
					CHANNELS 3 Zrotation Yrotation Xrotation
					End Site
					{
						OFFSET 0.000000 0.000000 0.000000
					}
				}
			}
		}
	}
	JOINT lowerback
	{
		OFFSET 0.004439 0.124404 -0.038385
		CHANNELS 3 Zrotation Yrotation Xrotation
		JOINT upperback
		{
			OFFSET 0.004488 0.137956 0.026820
			CHANNELS 3 Zrotation Yrotation Xrotation
			JOINT chest
			{
				OFFSET -0.002265 0.056032 0.002855
				CHANNELS 3 Zrotation Yrotation Xrotation
				JOINT lowerneck
				{
					OFFSET -0.013390 0.211636 -0.033468
					CHANNELS 3 Zrotation Yrotation Xrotation
					JOINT upperneck
					{
						OFFSET 0.010113 0.088937 0.050410
						CHANNELS 3 Zrotation Yrotation Xrotation
						End Site
						{
							OFFSET 0.000000 0.000000 0.000000
						}
					}
				}
				JOINT lclavicle
				{
					OFFSET 0.071702 0.114000 -0.018898
					CHANNELS 3 Zrotation Yrotation Xrotation
					JOINT lshoulder
					{
						OFFSET 0.122921 0.045205 -0.019046
						CHANNELS 3 Zrotation Yrotation Xrotation
						JOINT lelbow
						{
							OFFSET 0.255332 -0.015649 -0.022946
							CHANNELS 3 Zrotation Yrotation Xrotation
							JOINT lwrist
							{
								OFFSET 0.265709 0.012698 -0.007375
								CHANNELS 3 Zrotation Yrotation Xrotation
								End Site
								{
									OFFSET 0.000000 0.000000 0.000000
								}
							}
						}
					}
				}
				JOINT rclavicle
				{
					OFFSET -0.082954 0.112472 -0.023707
					CHANNELS 3 Zrotation Yrotation Xrotation
					JOINT rshoulder
					{
						OFFSET -0.113228 0.046853 -0.008472
						CHANNELS 3 Zrotation Yrotation Xrotation
						JOINT relbow
						{
							OFFSET -0.260127 -0.014369 -0.031269
							CHANNELS 3 Zrotation Yrotation Xrotation
							JOINT rwrist
							{
								OFFSET -0.269108 0.006794 -0.006027
								CHANNELS 3 Zrotation Yrotation Xrotation
								End Site
								{
									OFFSET 0.000000 0.000000 0.000000
								}
							}
						}
					}
				}
			}
		}
	}
}
MOTION
Frames: 13
Frame Time: 0.033333
-0.017287 -1.107412 0.993568 177.511208 -3.109558 83.212859 -3.424522 0.683353 6.137419 -0.063041 -9.320721 3.032765 4.164995 10.398582 -10.899259 0.000000 -0.000000 0.000000 -1.745958 -4.560467 6.825385 -2.819792 -1.451850 1.100971 0.909833 -11.509495 -12.117270 0.000000 -0.000000 0.000000 -3.152971 6.089508 6.637477 -2.324553 -1.777712 13.440781 -1.261951 -0.939377 -3.131822 3.669846 8.112583 -8.180982 6.626482 5.381937 3.666932 -30.649779 -9.570522 6.850431 -44.272435 -6.135553 9.027772 2.656538 -23.684421 1.056076 -1.977738 -1.913425 0.047209 32.722573 10.681371 11.351559 52.548290 5.234819 11.348109 -11.942524 25.103442 -12.357490 3.267247 4.697970 -10.936445 
-0.017452 -1.107252 0.993498 177.499481 -3.096831 83.265965 -3.434037 0.639389 6.072470 -0.050351 -9.232556 3.053436 4.101175 10.457130 -10.908232 0.000000 -0.000000 0.000000 -1.729785 -4.523016 6.768181 -2.839233 -1.493920 1.124310 0.998467 -11.542773 -12.167507 0.000000 -0.000000 0.000000 -3.093099 6.024191 6.650102 -2.382549 -1.787886 13.287967 -1.270886 -0.915016 -3.021271 3.689375 8.137499 -8.104163 6.684280 5.341412 3.638461 -30.508862 -9.638102 6.848491 -44.371275 -6.159604 9.112087 2.687337 -23.712658 1.265854 -2.137696 -1.971151 -0.081817 32.626510 10.814684 11.442205 52.679806 5.307976 11.390231 -12.043006 24.977586 -12.251179 3.341587 4.730235 -11.107133 
-0.017507 -1.107127 0.993450 177.473753 -3.048802 83.315380 -3.409806 0.593764 5.963695 -0.046200 -9.217879 3.177363 4.112514 10.492599 -10.980485 0.000000 -0.000000 0.000000 -1.673060 -4.499007 6.682747 -2.842153 -1.518126 1.205300 1.013221 -11.524335 -12.223476 0.000000 -0.000000 0.000000 -3.075311 5.945899 6.738452 -2.361339 -1.816796 13.154282 -1.249123 -0.867731 -3.027040 3.639211 8.159268 -8.029391 6.668678 5.395807 3.524785 -30.413818 -9.625534 6.829427 -44.389486 -6.026134 9.220652 2.625922 -24.059256 1.397362 -2.145279 -2.098896 -0.235600 32.564022 10.853394 11.476186 52.678234 5.306193 11.403003 -12.016609 25.011798 -12.151368 3.376033 4.803405 -11.113506 
-0.017499 -1.106773 0.993324 177.366349 -2.938706 83.348496 -3.326503 0.496217 5.732110 -0.086354 -9.140015 3.635273 4.129488 10.559993 -11.166897 0.000000 -0.000000 0.000000 -1.545934 -4.454049 6.630403 -2.827849 -1.502595 1.262205 0.994803 -11.494729 -12.215218 0.000000 -0.000000 0.000000 -3.087465 5.850520 6.696987 -2.299657 -1.861698 13.132279 -1.212289 -0.739694 -3.044709 3.584569 8.300424 -7.822645 6.736410 5.499966 3.495008 -30.368533 -9.549379 6.864606 -44.255507 -5.835791 9.300259 2.602124 -24.617240 1.732094 -2.401527 -2.463708 0.001290 32.521231 10.935311 11.549854 52.612060 5.287878 11.348896 -12.005600 25.132775 -12.073805 3.433992 4.938852 -11.134392 
-0.017387 -1.106511 0.993326 177.316154 -2.890353 83.323957 -3.266414 0.477951 5.758208 -0.095552 -9.095842 3.684512 4.144775 10.576832 -11.203205 0.000000 -0.000000 0.000000 -1.494502 -4.464593 6.674556 -2.817406 -1.472011 1.261052 1.006046 -11.492528 -12.252867 0.000000 -0.000000 0.000000 -3.097656 5.831582 6.654013 -2.268266 -1.870873 13.184050 -1.197314 -0.687454 -3.042675 3.600694 8.312691 -7.792256 6.734188 5.481031 3.517775 -30.355352 -9.526424 6.894642 -44.164931 -5.778569 9.294311 2.477077 -24.784921 1.848040 -2.444097 -2.431054 0.053220 32.509019 10.959399 11.575444 52.595820 5.292580 11.319653 -12.019431 25.180871 -12.118886 3.451370 4.948481 -11.171392 
-0.017209 -1.106148 0.993338 177.223259 -2.799999 83.273365 -3.142907 0.506102 5.855255 -0.120207 -9.042014 3.679129 4.155268 10.599198 -11.224935 0.000000 -0.000000 0.000000 -1.383227 -4.485912 6.748419 -2.836562 -1.406020 1.254201 1.046136 -11.464134 -12.265603 0.000000 -0.000000 0.000000 -3.117041 5.782009 6.615318 -2.196877 -1.882665 13.241449 -1.163662 -0.589958 -3.025538 3.624961 8.269440 -7.721853 6.683947 5.456339 3.568266 -30.293357 -9.467858 6.913160 -44.096977 -5.649733 9.338184 2.351260 -25.032526 2.017149 -2.414460 -2.415073 0.029953 32.444129 10.975279 11.588490 52.607444 5.322840 11.286067 -12.058579 25.228767 -12.166739 3.492432 4.973595 -11.213811 
-0.017153 -1.105874 0.993156 177.139969 -2.729631 83.368038 -3.060492 0.522255 5.776606 -0.107850 -9.037880 3.669376 4.170964 10.636953 -11.218831 0.000000 -0.000000 0.000000 -1.275651 -4.442880 6.634379 -2.862201 -1.342241 1.281177 1.078398 -11.482856 -12.259806 0.000000 -0.000000 0.000000 -3.151511 5.694918 6.577588 -2.134345 -1.903709 13.044015 -1.138325 -0.500966 -2.946836 3.644323 8.237580 -7.622859 6.617222 5.524866 3.612368 -30.153420 -9.357409 6.832538 -44.232473 -5.442391 9.521305 2.220709 -25.126244 2.164498 -2.666407 -2.032220 -0.165066 32.270166 10.957871 11.575624 52.751264 5.271392 11.397980 -12.124625 25.312132 -12.124134 3.595426 4.837770 -11.357342 
-0.017129 -1.105731 0.993034 177.088744 -2.707323 83.471813 -3.026204 0.499784 5.721707 -0.110451 -9.008067 3.568089 4.163208 10.689902 -11.150124 0.000000 -0.000000 0.000000 -1.227762 -4.362812 6.521919 -2.875077 -1.334194 1.291090 1.116669 -11.542318 -12.271841 0.000000 -0.000000 0.000000 -3.209683 5.645523 6.464672 -2.118892 -1.891850 13.009926 -1.120498 -0.458789 -2.870554 3.638957 8.262338 -7.656378 6.643809 5.483560 3.565118 -30.116928 -9.354138 6.817166 -44.254571 -5.429803 9.480474 2.372720 -24.819759 2.103963 -3.087474 -2.092269 -0.122005 32.195472 10.998292 11.615069 52.823018 5.265310 11.404891 -12.205084 25.359692 -12.058247 3.756077 4.859595 -11.365100 
-0.017296 -1.105817 0.992961 177.098462 -2.730592 83.548124 -3.067372 0.473745 5.657615 -0.113311 -9.051912 3.511946 4.174744 10.752164 -11.129975 0.000000 -0.000000 0.000000 -1.266001 -4.272690 6.429138 -2.844601 -1.356720 1.298813 1.070455 -11.596369 -12.237095 0.000000 -0.000000 0.000000 -3.211589 5.546045 6.508404 -2.180280 -1.897315 12.860471 -1.149634 -0.404418 -2.821570 3.625897 8.193431 -7.777564 6.728421 5.518933 3.657226 -30.262289 -9.320180 6.825092 -44.095354 -5.507478 9.365917 2.664151 -24.173982 1.942153 -2.921552 -2.559992 0.068230 32.164174 11.029365 11.659273 52.879344 5.262108 11.435679 -12.202678 25.338479 -12.003619 3.629526 5.003140 -11.496885 
-0.017451 -1.105951 0.992807 177.066332 -2.707076 83.603453 -3.060756 0.473521 5.596421 -0.095228 -9.084205 3.465930 4.202481 10.810271 -11.085989 0.000000 -0.000000 0.000000 -1.248729 -4.182977 6.291297 -2.821342 -1.335662 1.401203 1.037839 -11.645532 -12.267981 0.000000 -0.000000 0.000000 -3.153599 5.441617 6.611610 -2.208156 -1.891874 12.743107 -1.166149 -0.321015 -2.830088 3.515870 8.138724 -7.767449 6.739101 5.595345 3.493854 -30.417784 -9.259854 6.803552 -44.035150 -5.540465 9.195466 3.077226 -23.741462 1.677516 -3.094284 -2.626080 0.386294 32.076625 11.069375 11.656819 52.935848 5.197596 11.433339 -12.213999 25.401289 -11.934856 3.680867 5.022265 -11.548746 
-0.017552 -1.106111 0.992565 177.013118 -2.656708 83.719701 -3.009056 0.491306 5.483705 -0.078164 -9.081816 3.376923 4.214152 10.835947 -10.966502 0.000000 -0.000000 0.000000 -1.161540 -4.131763 6.005116 -2.858173 -1.252298 1.649471 0.992127 -11.618342 -12.193517 0.000000 -0.000000 0.000000 -3.086091 5.361696 6.638782 -2.208111 -1.895018 12.625623 -1.191010 -0.245664 -2.790869 3.459234 8.128667 -7.799038 6.664882 5.699993 3.327625 -30.374629 -9.249865 6.750333 -44.319896 -5.409624 9.082323 3.591310 -23.562521 0.745775 -2.627870 -2.120030 -0.187330 31.976200 11.133833 11.688105 52.994765 5.173972 11.507076 -12.250618 25.446926 -11.983326 3.576564 4.896861 -11.514600 
-0.017723 -1.106525 0.992599 177.050555 -2.677856 83.809921 -3.026697 0.519666 5.429273 -0.076564 -9.144621 3.213757 4.210214 10.815726 -10.890747 0.000000 -0.000000 0.000000 -1.176891 -4.138820 5.866195 -2.879092 -1.299955 1.656696 0.963284 -11.607553 -12.174060 0.000000 -0.000000 0.000000 -3.102978 5.255852 6.650034 -2.230879 -1.933618 12.609576 -1.194163 -0.210325 -2.772975 3.372932 8.131539 -7.855478 6.618881 5.784100 3.251421 -30.374864 -9.177985 6.709739 -44.479729 -5.406400 8.758117 4.095139 -23.334623 -0.413884 -2.112195 -2.017967 -0.866692 31.965198 11.206765 11.737761 52.948612 5.273113 11.505225 -12.233909 25.368512 -12.085711 3.480816 4.860423 -11.415276 
-0.017873 -1.106920 0.992592 176.926757 -2.658429 83.922248 -3.008002 0.527966 5.335581 -0.075581 -9.068757 3.134543 4.219599 10.844812 -10.860333 0.000000 -0.000000 0.000000 -1.134530 -4.096743 5.699250 -2.911600 -1.296132 1.659352 0.942096 -11.542390 -12.109840 0.000000 -0.000000 0.000000 -3.116342 5.214248 6.587339 -2.204395 -1.900285 12.659330 -1.189298 -0.117504 -2.783786 3.333154 8.173168 -7.730351 6.620665 5.849673 3.176365 -30.354664 -9.032770 6.574369 -44.576939 -5.452094 8.559152 4.525260 -23.225610 -1.159708 -1.940752 -2.036889 -1.088883 31.891730 11.211473 11.736631 52.935719 5.360165 11.466912 -12.229076 25.303181 -12.221635 3.478740 4.928921 -11.354448 
